<mxfile host="app.diagrams.net" modified="2020-09-01T09:18:03.778Z" agent="5.0 (Windows NT 10.0; Win64; x64) AppleWebKit/537.36 (KHTML, like Gecko) Chrome/85.0.4183.83 Safari/537.36" etag="0rXFFAKCx8BEznKimzg3" version="13.6.6" type="github">
  <diagram id="PuGufQDsKNIKy0PpDgzQ" name="Page-1">
    <mxGraphModel dx="1221" dy="654" grid="1" gridSize="10" guides="1" tooltips="1" connect="1" arrows="1" fold="1" page="1" pageScale="1" pageWidth="1100" pageHeight="1700" math="0" shadow="0">
      <root>
        <mxCell id="0" />
        <mxCell id="1" parent="0" />
        <mxCell id="4-SGYTXcVKiXNRRfTRLH-1" value="&lt;font style=&quot;font-size: 36px&quot;&gt;Home&lt;/font&gt;" style="rounded=0;whiteSpace=wrap;html=1;" parent="1" vertex="1">
          <mxGeometry x="430" y="40" width="240" height="120" as="geometry" />
        </mxCell>
        <mxCell id="4-SGYTXcVKiXNRRfTRLH-2" value="&lt;font style=&quot;font-size: 36px&quot;&gt;Admin&lt;/font&gt;" style="rounded=0;whiteSpace=wrap;html=1;" parent="1" vertex="1">
          <mxGeometry x="770" y="280" width="320" height="120" as="geometry" />
        </mxCell>
        <mxCell id="4-SGYTXcVKiXNRRfTRLH-3" value="&lt;font style=&quot;font-size: 36px&quot;&gt;User&lt;/font&gt;" style="rounded=0;whiteSpace=wrap;html=1;" parent="1" vertex="1">
          <mxGeometry x="10" y="280" width="320" height="120" as="geometry" />
        </mxCell>
        <mxCell id="4-SGYTXcVKiXNRRfTRLH-4" value="&lt;font style=&quot;font-size: 24px&quot;&gt;Add &amp;amp; Edit Article&lt;/font&gt;" style="rounded=0;whiteSpace=wrap;html=1;fontSize=30;" parent="1" vertex="1">
          <mxGeometry x="770" y="440" width="150" height="160" as="geometry" />
        </mxCell>
        <mxCell id="4-SGYTXcVKiXNRRfTRLH-5" value="&lt;font style=&quot;font-size: 30px&quot;&gt;Comment&lt;/font&gt;" style="rounded=0;whiteSpace=wrap;html=1;" parent="1" vertex="1">
          <mxGeometry x="180" y="440" width="150" height="160" as="geometry" />
        </mxCell>
        <mxCell id="4-SGYTXcVKiXNRRfTRLH-6" value="&lt;font style=&quot;font-size: 30px&quot;&gt;Remove Article&lt;/font&gt;" style="rounded=0;whiteSpace=wrap;html=1;" parent="1" vertex="1">
          <mxGeometry x="940" y="440" width="150" height="160" as="geometry" />
        </mxCell>
        <mxCell id="4-SGYTXcVKiXNRRfTRLH-7" value="&lt;font style=&quot;font-size: 30px&quot;&gt;Book&lt;br&gt;Mark&lt;/font&gt;" style="rounded=0;whiteSpace=wrap;html=1;" parent="1" vertex="1">
          <mxGeometry x="10" y="440" width="150" height="160" as="geometry" />
        </mxCell>
        <mxCell id="TL2sS0uVeFc4EOoMSjgD-11" value="" style="edgeStyle=orthogonalEdgeStyle;rounded=1;orthogonalLoop=1;jettySize=auto;html=1;strokeWidth=5;fillColor=#1ba1e2;strokeColor=#006EAF;" parent="1" source="4-SGYTXcVKiXNRRfTRLH-8" target="4-SGYTXcVKiXNRRfTRLH-3" edge="1">
          <mxGeometry relative="1" as="geometry" />
        </mxCell>
        <mxCell id="pTBLCFFmkAzoy-t31FPo-8" value="" style="edgeStyle=orthogonalEdgeStyle;rounded=0;orthogonalLoop=1;jettySize=auto;html=1;fillColor=#1ba1e2;strokeColor=#006EAF;strokeWidth=5;" edge="1" parent="1" source="4-SGYTXcVKiXNRRfTRLH-8" target="4-SGYTXcVKiXNRRfTRLH-9">
          <mxGeometry relative="1" as="geometry" />
        </mxCell>
        <mxCell id="4-SGYTXcVKiXNRRfTRLH-8" value="&lt;font style=&quot;font-size: 36px&quot;&gt;Visitor&lt;/font&gt;" style="rounded=0;whiteSpace=wrap;html=1;" parent="1" vertex="1">
          <mxGeometry x="390" y="280" width="320" height="120" as="geometry" />
        </mxCell>
        <mxCell id="4-SGYTXcVKiXNRRfTRLH-9" value="&lt;ul&gt;&lt;li&gt;&lt;span&gt;&lt;font style=&quot;font-size: 24px&quot;&gt;Home&lt;/font&gt;&lt;/span&gt;&lt;/li&gt;&lt;li&gt;&lt;div&gt;&lt;span&gt;&lt;font style=&quot;font-size: 24px&quot;&gt;Article Details&lt;/font&gt;&lt;/span&gt;&lt;/div&gt;&lt;/li&gt;&lt;li&gt;&lt;font style=&quot;font-size: 24px&quot;&gt;Author Profile&lt;/font&gt;&lt;/li&gt;&lt;li&gt;&lt;font style=&quot;font-size: 24px&quot;&gt;User Profile&lt;/font&gt;&lt;/li&gt;&lt;li&gt;&lt;font style=&quot;font-size: 24px&quot;&gt;Contact Author&lt;/font&gt;&lt;/li&gt;&lt;li&gt;&lt;font style=&quot;font-size: 24px&quot;&gt;Sign In&lt;/font&gt;&lt;/li&gt;&lt;li&gt;&lt;font style=&quot;font-size: 24px&quot;&gt;Sign Up&lt;/font&gt;&lt;/li&gt;&lt;li&gt;&lt;font style=&quot;font-size: 24px&quot;&gt;Reset Password&lt;/font&gt;&lt;/li&gt;&lt;/ul&gt;" style="rounded=0;whiteSpace=wrap;html=1;align=left;" parent="1" vertex="1">
          <mxGeometry x="390" y="440" width="320" height="320" as="geometry" />
        </mxCell>
        <mxCell id="TL2sS0uVeFc4EOoMSjgD-5" value="" style="endArrow=classic;html=1;fillColor=#1ba1e2;strokeColor=#006EAF;rounded=1;strokeWidth=5;" parent="1" target="4-SGYTXcVKiXNRRfTRLH-8" edge="1">
          <mxGeometry width="50" height="50" relative="1" as="geometry">
            <mxPoint x="549" y="160" as="sourcePoint" />
            <mxPoint x="549" y="200" as="targetPoint" />
          </mxGeometry>
        </mxCell>
        <mxCell id="TL2sS0uVeFc4EOoMSjgD-10" value="" style="endArrow=classic;html=1;fillColor=#1ba1e2;strokeColor=#006EAF;rounded=1;strokeWidth=5;" parent="1" edge="1">
          <mxGeometry width="50" height="50" relative="1" as="geometry">
            <mxPoint x="710" y="339.5" as="sourcePoint" />
            <mxPoint x="770" y="340" as="targetPoint" />
          </mxGeometry>
        </mxCell>
        <mxCell id="pTBLCFFmkAzoy-t31FPo-1" value="&lt;font style=&quot;font-size: 24px&quot;&gt;Remove User&lt;/font&gt;" style="rounded=0;whiteSpace=wrap;html=1;fontSize=30;" vertex="1" parent="1">
          <mxGeometry x="770" y="624" width="320" height="136" as="geometry" />
        </mxCell>
        <mxCell id="pTBLCFFmkAzoy-t31FPo-2" value="&lt;font style=&quot;font-size: 24px&quot;&gt;Edit &amp;amp; Remove Comment &amp;amp; BookMark&lt;/font&gt;" style="whiteSpace=wrap;html=1;rounded=0;" vertex="1" parent="1">
          <mxGeometry x="10" y="620" width="320" height="140" as="geometry" />
        </mxCell>
      </root>
    </mxGraphModel>
  </diagram>
</mxfile>
